<?xml version="1.0" standalone="no"?><!DOCTYPE svg PUBLIC "-//W3C//DTD SVG 1.1//EN" "http://www.w3.org/Graphics/SVG/1.1/DTD/svg11.dtd"><svg t="1583372967376" class="icon" viewBox="0 0 1079 1024" version="1.1" xmlns="http://www.w3.org/2000/svg" p-id="1085" xmlns:xlink="http://www.w3.org/1999/xlink" width="210.7421875" height="200"><defs><style type="text/css"></style></defs><path d="M388.913802 400.939686m48.529911 0l0.003495 0q48.529911 0 48.529911 48.529911l0 108.446144q0 48.529911-48.529911 48.529911l-0.003495 0q-48.529911 0-48.529911-48.529911l0-108.446144q0-48.529911 48.529911-48.529911Z" fill="#00C1A5" p-id="1086"></path><path d="M631.570348 400.939686m48.529911 0l0.003495 0q48.529911 0 48.529912 48.529911l0 108.446144q0 48.529911-48.529912 48.529911l-0.003495 0q-48.529911 0-48.529911-48.529911l0-108.446144q0-48.529911 48.529911-48.529911Z" fill="#00C1A5" p-id="1087"></path><path d="M540.574143 128.947113c204.345666 0 377.223427 132.428014 434.675768 314.748942 63.128027 24.191563 107.194976 91.034648 104.496929 168.089774-2.92172 83.300478-59.524805 150.898457-132.047072 164.332779-74.661133 146.680137-228.928655 247.385119-407.125625 247.385119-178.092123 0-332.282758-100.589652-406.996314-247.126498C60.381051 763.561502 3.054526 695.628014 0.118826 611.785829c-2.722512-77.645761 42.043413-144.922212 105.961283-168.634976 57.616601-182.037843 230.354567-314.203741 434.494034-314.20374z m0 45.433447c-178.958853 0-335.305829 113.611577-389.567344 277.500505l-1.61114 4.980205-6.699686 21.164996-20.815509 7.723686c-46.342116 17.191317-78.358717 67.30441-76.35615 124.445707 2.145857 61.286225 42.655017 111.245543 94.319836 121.139549l1.565707 0.28658 22.342771 3.914267 10.302908 20.200409c68.873611 135.094608 209.671863 222.333816 366.518607 222.333816 155.371904 0 294.988887-85.607099 364.55099-218.520901l2.082949-4.040082 10.170102-19.980232 22.045707-4.082021c51.982853-9.631891 92.757625-59.765952 94.913966-121.251385 1.967618-56.124287-28.892177-105.513939-73.976137-123.537038l-1.369993-0.534717-20.48-7.849501-6.59484-20.920355c-52.563003-166.810648-210.388314-282.973488-391.342744-282.973488z" fill="#00C1A5" p-id="1088"></path><path d="M611.722922 751.511154c5.930812 59.650621-14.751891 89.479427-62.04811 89.479426-47.296218 0-68.429761-29.828805-63.397133-89.479426h125.445243z" fill="#FFB7A4" p-id="1089"></path><path d="M184.627549 0l109.529557 204.530894-25.142171 45.300642L28.203686 202.521338zM915.438526 0l-109.529557 204.530894 25.142171 45.300642 240.807754-47.310198z" fill="#00C1A5" p-id="1090"></path><path d="M266.54056 134.217392a24.464164 24.464164 0 0 1 31.73701 37.227468l-0.681502 0.583645L184.774334 264.702253a24.464164 24.464164 0 0 1-31.740505-37.227468l0.681502-0.58015 112.828724-92.680737zM829.495918 150.335782a24.464164 24.464164 0 0 0-31.740505 37.227467l0.684997 0.58015 112.825228 92.684232a24.464164 24.464164 0 0 0 31.740505-37.230962l-0.681501-0.58015-112.828724-92.680737z" fill="#FFB7A4" p-id="1091"></path></svg>